name analog
datacolumns 19
datarows 52
range 0.535 0.5605
endheader
time	ground_force_vx	ground_force_vy	ground_force_vz	ground_force_px	ground_force_py	ground_force_pz	l_ground_force_vx	l_ground_force_vy	l_ground_force_vz	l_ground_force_px	l_ground_force_py	l_ground_force_pz	ground_torque_x	ground_torque_y	ground_torque_z	l_ground_torque_x	l_ground_torque_y	l_ground_torque_z
0.535	-0.0	-0.0	-0.0	-1.0136409997940063	36.96846008300781	-377.2268981933594	-6.770377159118652	-22.373619079589844	-244.0856170654297	-0.0	-0.0	-0.0	-0.0	-0.0	-0.0	70425.2109375	-19139.19921875	-2145.092529296875
0.5355	-0.0	-0.0	-0.0	-0.0324030444025993	35.29563903808594	-361.7195739746094	-5.673736572265625	-22.469377517700195	-233.3742828369141	-0.0	-0.0	-0.0	-0.0	-0.0	-0.0	67745.7734375	-18015.556640625	-1533.3331298828125
0.536	-0.0	-0.0	-0.0	0.6528519988059998	33.780426025390625	-347.5935974121094	-4.435539245605469	-22.40553855895996	-225.5670166015625	-0.0	-0.0	-0.0	-0.0	-0.0	-0.0	64778.671875	-17512.275390625	-1195.4071044921875
0.5365	-0.0	-0.0	-0.0	0.2351002246141433	32.28095626831055	-333.692626953125	-3.850708723068237	-22.11248016357422	-218.80685424804688	-0.0	-0.0	-0.0	-0.0	-0.0	-0.0	62447.14453125	-16741.611328125	-857.8449096679688
0.537	-0.0	-0.0	-0.0	0.5961728096008301	31.40648078918457	-322.9526062011719	-3.669419527053833	-22.55416488647461	-212.20509338378903	-0.0	-0.0	-0.0	-0.0	-0.0	-0.0	60666.515625	-15924.328125	-709.482177734375
0.5375	-0.0	-0.0	-0.0	0.3851081728935241	30.72174835205078	-311.2388610839844	-3.814563751220703	-22.381736755371094	-205.5393829345703	-0.0	-0.0	-0.0	-0.0	-0.0	-0.0	58557.74609375	-15579.8232421875	-770.239013671875
0.538	-0.0	-0.0	-0.0	-0.2586289048194885	30.337045669555664	-299.3847961425781	-4.2538652420043945	-22.024362564086918	-199.17742919921875	-0.0	-0.0	-0.0	-0.0	-0.0	-0.0	56847.52734375	-14880.953125	-947.0327758789062
0.5385	-0.0	-0.0	-0.0	-1.145883083343506	29.62407875061035	-290.592041015625	-5.168971061706543	-21.731483459472656	-194.0348358154297	-0.0	-0.0	-0.0	-0.0	-0.0	-0.0	55129.21484375	-14448.99609375	-1094.4427490234375
0.539	-0.0	-0.0	-0.0	-2.1879007816314697	29.67569351196289	-284.1243896484375	-6.046955585479736	-21.2575740814209	-188.8158264160156	-0.0	-0.0	-0.0	-0.0	-0.0	-0.0	53820.94140625	-14079.111328125	-1366.357177734375
0.5395	-0.0	-0.0	-0.0	-2.915813684463501	29.64750862121582	-276.9121398925781	-6.882269859313965	-21.04848861694336	-183.19419860839844	-0.0	-0.0	-0.0	-0.0	-0.0	-0.0	52568.62890625	-13885.1669921875	-1618.4287109375
0.54	-0.0	-0.0	-0.0	-2.793620109558105	30.065013885498047	-271.8373413085937	-7.129550933837891	-20.49528694152832	-181.1178436279297	-0.0	-0.0	-0.0	-0.0	-0.0	-0.0	51591.51171875	-13553.3251953125	-1766.6939697265625
0.5405	-0.0	-0.0	-0.0	-2.686403512954712	30.27630615234375	-268.3656311035156	-7.479678630828857	-19.834985733032227	-177.69931030273438	-0.0	-0.0	-0.0	-0.0	-0.0	-0.0	51066.12109375	-13576.697265625	-1779.24365234375
0.541	-0.0	-0.0	-0.0	-1.2871960401535034	30.36545753479004	-264.2693786621094	-6.942537784576416	-19.556589126586918	-175.14498901367188	-0.0	-0.0	-0.0	-0.0	-0.0	-0.0	50618.42578125	-13679.17578125	-1710.10205078125
0.5415	-0.0	-0.0	-0.0	0.1784210205078125	30.73245620727539	-263.5417175292969	-6.214725971221924	-18.7797794342041	-174.18753051757812	-0.0	-0.0	-0.0	-0.0	-0.0	-0.0	49973.47265625	-13792.1005859375	-1581.384033203125
0.542	-0.0	-0.0	-0.0	1.5951086282730105	30.3548641204834	-261.8170166015625	-4.795469284057617	-18.597993850708008	-175.23406982421875	-0.0	-0.0	-0.0	-0.0	-0.0	-0.0	50731.89453125	-14178.658203125	-1277.7691650390625
0.5425	-0.0	-0.0	-0.0	3.239509344100952	31.134416580200195	-263.2725524902344	-3.758865594863892	-18.55269432067871	-176.8899383544922	-0.0	-0.0	-0.0	-0.0	-0.0	-0.0	51279.43359375	-14804.0576171875	-728.6350708007812
0.543	-0.0	-0.0	-0.0	4.064723491668701	31.201169967651367	-265.4590148925781	-1.6576944589614868	-18.10068893432617	-181.53805541992188	-0.0	-0.0	-0.0	-0.0	-0.0	-0.0	52244.046875	-15628.7861328125	-394.9397888183594
0.5435	-0.0	-0.0	-0.0	4.912228584289551	31.36825561523437	-268.5046691894531	0.1388592422008514	-18.343259811401367	-186.6443328857422	-0.0	-0.0	-0.0	-0.0	-0.0	-0.0	53672.015625	-16753.150390625	153.04641723632812
0.544	-0.0	-0.0	-0.0	5.64236307144165	31.74678421020508	-272.742431640625	1.6413445472717283	-18.48685646057129	-191.4442901611328	-0.0	-0.0	-0.0	-0.0	-0.0	-0.0	55370.98828125	-18024.95703125	634.313720703125
0.5445	-0.0	-0.0	-0.0	6.819474697113037	31.463031768798828	-276.2504577636719	3.4762542247772217	-18.92842674255371	-198.4271697998047	-0.0	-0.0	-0.0	-0.0	-0.0	-0.0	57360.0625	-19524.943359375	1380.7408447265625
0.545	-0.0	-0.0	-0.0	7.481762886047363	31.31249618530273	-282.5203857421875	5.100447177886963	-19.480188369750977	-207.4376220703125	-0.0	-0.0	-0.0	-0.0	-0.0	-0.0	59880.625	-21007.005859375	2021.2724609375
0.5455	-0.0	-0.0	-0.0	8.619640350341797	31.447458267211918	-289.01092529296875	7.26267147064209	-19.71746826171875	-215.42654418945312	-0.0	-0.0	-0.0	-0.0	-0.0	-0.0	61904.625	-22616.130859375	2838.6640625
0.546	-0.0	-0.0	-0.0	10.213064193725586	31.217153549194336	-294.6373291015625	8.886894226074219	-20.72224235534668	-222.03721618652344	-0.0	-0.0	-0.0	-0.0	-0.0	-0.0	64263.58203125	-24494.7265625	3536.365966796875
0.5465	-0.0	-0.0	-0.0	12.311050415039062	30.652027130126957	-300.8596496582031	11.131959915161133	-21.136327743530277	-231.13836669921875	-0.0	-0.0	-0.0	-0.0	-0.0	-0.0	66738.25	-26087.275390625	4247.69384765625
0.547	-0.0	-0.0	-0.0	14.912991523742676	29.981779098510746	-308.3008117675781	13.422856330871582	-21.4621696472168	-238.5547790527344	-0.0	-0.0	-0.0	-0.0	-0.0	-0.0	69440.59375	-27621.330078125	4864.89990234375
0.5475	-0.0	-0.0	-0.0	16.388925552368164	29.701539993286133	-314.934326171875	14.9096040725708	-22.068090438842773	-246.15188598632807	-0.0	-0.0	-0.0	-0.0	-0.0	-0.0	71425.7109375	-29125.849609375	5383.3876953125
0.548	-0.0	-0.0	-0.0	17.655838012695312	29.481203079223636	-319.87701416015625	15.285722732543944	-23.085588455200195	-253.43441772460935	-0.0	-0.0	-0.0	-0.0	-0.0	-0.0	73472.109375	-30092.052734375	5639.06591796875
0.5485	-0.0	-0.0	-0.0	18.02720832824707	29.35138511657715	-328.8929443359375	15.230826377868652	-23.527273178100582	-259.3943786621094	-0.0	-0.0	-0.0	-0.0	-0.0	-0.0	74989.015625	-31279.142578125	5930.64013671875
0.549	-0.0	-0.0	-0.0	17.931312561035156	29.24871826171875	-332.4511413574219	15.087347030639648	-23.58189010620117	-264.148681640625	-0.0	-0.0	-0.0	-0.0	-0.0	-0.0	76812.5625	-32055.78515625	5944.08203125
0.5495	-0.0	-0.0	-0.0	17.81465721130371	29.262191772460938	-338.9982604980469	14.227715492248535	-23.880695343017575	-270.3510437011719	-0.0	-0.0	-0.0	-0.0	-0.0	-0.0	78174.1171875	-32821.97265625	5626.35546875
0.55	-0.0	-0.0	-0.0	17.561054229736328	29.29652214050293	-343.66949462890625	13.654374122619627	-24.31566619873047	-272.7684020996094	-0.0	-0.0	-0.0	-0.0	-0.0	-0.0	79388.0859375	-33483.8046875	5555.22119140625
0.5505	-0.0	-0.0	-0.0	17.39604949951172	29.584228515625	-350.0013427734375	12.924473762512209	-24.675708770751957	-277.9246826171875	-0.0	-0.0	-0.0	-0.0	-0.0	-0.0	80645.609375	-34033.07421875	5169.01953125
0.551	-0.0	-0.0	-0.0	16.696739196777344	29.86586570739746	-355.162353515625	12.453695297241213	-24.614606857299805	-281.765380859375	-0.0	-0.0	-0.0	-0.0	-0.0	-0.0	81726.5859375	-34514.578125	5054.60791015625
0.5515	-0.0	-0.0	-0.0	15.755654335021973	30.104183197021484	-359.0180969238281	11.614073753356934	-24.737079620361328	-285.3640441894531	-0.0	-0.0	-0.0	-0.0	-0.0	-0.0	83005.234375	-35124.01953125	4905.646484375
0.552	-0.0	-0.0	-0.0	14.898155212402344	30.564353942871094	-364.481689453125	11.2390718460083	-25.036285400390625	-288.8274230957031	-0.0	-0.0	-0.0	-0.0	-0.0	-0.0	84111.25	-35362.61328125	4642.65478515625
0.5525	-0.0	-0.0	-0.0	13.822883605957031	31.059574127197266	-370.1029052734375	10.590974807739258	-25.049118041992188	-294.6839599609375	-0.0	-0.0	-0.0	-0.0	-0.0	-0.0	85034.9921875	-36099.6171875	4530.68603515625
0.553	-0.0	-0.0	-0.0	12.814757347106934	31.5673770904541	-374.125244140625	10.44809913635254	-25.08335876464844	-298.1176452636719	-0.0	-0.0	-0.0	-0.0	-0.0	-0.0	86293.5625	-36539.70703125	4500.9248046875
0.5535	-0.0	-0.0	-0.0	11.907598495483398	32.0792350769043	-378.2251586914063	10.201740264892578	-25.75554656982422	-299.9398498535156	-0.0	-0.0	-0.0	-0.0	-0.0	-0.0	87261.7421875	-36974.48828125	4317.62255859375
0.554	-0.0	-0.0	-0.0	11.864997863769531	32.90842819213867	-383.30767822265625	10.182222366333008	-26.074329376220703	-306.0994873046875	-0.0	-0.0	-0.0	-0.0	-0.0	-0.0	88517.9375	-37641.484375	4349.66357421875
0.5545	-0.0	-0.0	-0.0	11.30263900756836	32.91619110107422	-387.43841552734375	9.580764770507812	-26.392940521240234	-309.4546813964844	-0.0	-0.0	-0.0	-0.0	-0.0	-0.0	89528.2265625	-37886.57421875	4345.21435546875
0.555	-0.0	-0.0	-0.0	11.035046577453612	33.29970932006836	-390.0612182617188	9.214484214782717	-26.99183654785156	-314.069091796875	-0.0	-0.0	-0.0	-0.0	-0.0	-0.0	90554.9140625	-38252.0546875	4288.13671875
0.5555	-0.0	-0.0	-0.0	11.00804042816162	33.92356872558594	-395.7434387207031	9.11810302734375	-27.61003875732422	-316.9370422363281	-0.0	-0.0	-0.0	-0.0	-0.0	-0.0	91715.984375	-38560.06640625	4051.807861328125
0.556	-0.0	-0.0	-0.0	10.883682250976562	34.35862350463867	-396.8674011230469	7.957054615020752	-28.182544708251957	-320.3839416503906	-0.0	-0.0	-0.0	-0.0	-0.0	-0.0	92613.984375	-38681.4921875	3925.81689453125
0.5565	-0.0	-0.0	-0.0	10.196951866149902	34.39408874511719	-396.1281433105469	7.09686279296875	-28.581422805786133	-323.66357421875	-0.0	-0.0	-0.0	-0.0	-0.0	-0.0	93390.40625	-38744.04296875	3779.510986328125
0.557	-0.0	-0.0	-0.0	9.6599702835083	34.18235778808594	-396.9009399414063	6.067330837249756	-29.454071044921875	-325.6206970214844	-0.0	-0.0	-0.0	-0.0	-0.0	-0.0	94146.1953125	-38562.5234375	3288.728515625
0.5575	-0.0	-0.0	-0.0	9.126365661621094	33.96720504760742	-396.9742431640625	4.790382385253906	-29.986230850219727	-326.5298156738281	-0.0	-0.0	-0.0	-0.0	-0.0	-0.0	94452.5390625	-38132.42578125	2893.8984375
0.558	-0.0	-0.0	-0.0	8.028945922851562	33.56669235229492	-398.2806396484375	3.0864710807800293	-29.844392776489254	-327.4712829589844	-0.0	-0.0	-0.0	-0.0	-0.0	-0.0	94597.4140625	-37830.31640625	2474.084228515625
0.5585	-0.0	-0.0	-0.0	6.414434909820557	33.45941925048828	-395.2083740234375	1.844622254371643	-30.53266716003418	-327.7480773925781	-0.0	-0.0	-0.0	-0.0	-0.0	-0.0	94477.46875	-37097.60546875	2007.416015625
0.559	-0.0	-0.0	-0.0	5.673843383789063	33.35271072387695	-394.819091796875	0.8155277967453003	-30.96578598022461	-327.3316650390625	-0.0	-0.0	-0.0	-0.0	-0.0	-0.0	94289.5546875	-36654.12890625	1576.706298828125
0.5595	-0.0	-0.0	-0.0	4.933443069458008	33.59333038330078	-392.4183654785156	-0.1954168081283569	-31.59260368347168	-326.0734558105469	-0.0	-0.0	-0.0	-0.0	-0.0	-0.0	93947.1953125	-36145.6796875	1249.549560546875
0.56	-0.0	-0.0	-0.0	4.032534599304199	33.64691162109375	-391.4992370605469	-1.20654296875	-31.910663604736328	-325.2340087890625	-0.0	-0.0	-0.0	-0.0	-0.0	-0.0	93561.6328125	-35568.03125	949.0702514648438
0.5605	-0.0	-0.0	-0.0	2.882178783416748	33.878692626953125	-392.2410278320313	-2.013730525970459	-32.17559051513672	-324.22216796875	-0.0	-0.0	-0.0	-0.0	-0.0	-0.0	93357.6953125	-35333.7265625	731.9962158203125
